#!OML:ASF \\Waltz\H\Terrain\Patient Classification 1\Animal2\Wednesday\Animal2.ASF
:FULLY-SPECIFIED
:DEGREES
575
root 9.63884 16.8089 -22.4255 3.27622 6.6875 -0.576493
lowerback 6.34053 -2.40217 -0.122726
upperback -4.86516 -3.2083 0.397133
thorax -8.66178 -1.54406 0.928308
lowerneck -1.44367 4.31612 12.308
upperneck 18.782 6.87134 -10.6537
head 6.69786 3.44407 -5.07533
rclavicle 2.29224e-014 5.76476e-015
rhumerus -20.8693 -17.8049 -25.8799
rradius 35.8106
rwrist 13.2098
rhand -3.63677 21.2028
rfingers 7.12502
rthumb 22.1027 -7.55387
lclavicle 2.29224e-014 5.76476e-015
lhumerus -39.9714 -31.8679 41.9513
lradius 48.3855
lwrist 2.61776
lhand -14.4619 18.0572
lfingers 7.12502
lthumb 11.6837 47.7114
rfemur -25.2222 -2.55338 21.4597
rtibia 59.6832
rfoot -25.4397 -6.35965
rtoes 4.37574
lfemur -20.7127 0.131558 -23.6291
ltibia 47.6948
lfoot -28.3709 0.0520278
ltoes -16.8902
576
root 9.62859 16.7935 -22.4317 3.27069 6.65251 -0.495269
lowerback 6.35317 -2.43425 -0.17923
upperback -4.80653 -3.26537 0.290829
thorax -8.60801 -1.57279 0.854266
lowerneck -1.5882 3.87867 11.6963
upperneck 18.98 6.23643 -10.2715
head 6.6755 3.11633 -4.89299
rclavicle -3.16409e-014 1.63997e-015
rhumerus -20.5727 -17.3706 -26.1918
rradius 35.7984
rwrist 12.7401
rhand -3.69185 21.2456
rfingers 7.12502
rthumb 22.0498 -7.51735
lclavicle -3.16409e-014 1.63997e-015
lhumerus -40.3052 -31.8395 42.2848
lradius 48.7004
lwrist 2.56917
lhand -14.3382 18.1692
lfingers 7.12502
lthumb 11.803 47.8166
rfemur -25.2254 -2.45594 21.3025
rtibia 59.5796
rfoot -25.4638 -6.11122
rtoes 4.30017
lfemur -20.7416 0.0515663 -23.7016
ltibia 47.8075
lfoot -28.534 0.220107
ltoes -18.0131
577
root 9.61864 16.7832 -22.436 3.16909 6.70767 -0.62557
lowerback 6.34393 -2.47654 -0.0550315
upperback -4.66026 -3.31042 0.268463
thorax -8.45195 -1.60451 0.762377
lowerneck -2.28546 3.43524 11.3052
upperneck 19.6441 5.5882 -10.0837
head 6.91677 2.76976 -4.8135
rclavicle 1.92945e-014 1.40143e-014
rhumerus -20.2426 -17.1463 -26.3655
rradius 35.728
rwrist 12.5963
rhand -3.7357 21.2166
rfingers 7.12502
rthumb 22.0077 -7.55135
lclavicle 1.92945e-014 1.40143e-014
lhumerus -40.4433 -31.5762 42.6141
lradius 48.8469
lwrist 2.48193
lhand -14.4252 18.1724
lfingers 7.12502
lthumb 11.7191 47.8245
rfemur -25.0319 -2.35696 21.4097
rtibia 59.4084
rfoot -25.6047 -6.10874
rtoes 3.60068
lfemur -20.7117 -0.00657853 -23.5295
ltibia 47.9502
lfoot -28.7755 0.431179
ltoes -18.8082
578
root 9.60664 16.7762 -22.438 3.1394 6.75187 -0.623963
lowerback 6.2641 -2.48957 -0.107504
upperback -4.51436 -3.33523 0.229721
thorax -8.24629 -1.61696 0.745353
lowerneck -2.66043 2.92839 11.1441
upperneck 19.9804 4.897 -10.1808
head 7.00582 2.40735 -4.87435
rclavicle 3.8732e-014 1.05356e-014
rhumerus -19.9971 -17.2409 -26.4114
rradius 35.7003
rwrist 12.8586
rhand -3.62203 21.2178
rfingers 7.12502
rthumb 22.1169 -7.53723
lclavicle 3.8732e-014 1.05356e-014
lhumerus -40.5782 -31.4541 43.0087
lradius 49.0078
lwrist 2.51353
lhand -14.5517 18.1895
lfingers 7.12502
lthumb 11.5971 47.8486
rfemur -24.8623 -2.30033 21.3879
rtibia 59.2348
rfoot -25.7286 -6.13302
rtoes 0.943015
lfemur -20.7849 -0.0682981 -23.4961
ltibia 48.1265
lfoot -28.7937 0.250601
ltoes -17.5241
579
root 9.59135 16.7685 -22.4425 3.27712 6.64887 -0.692385
lowerback 6.18904 -2.42931 -0.0747132
upperback -4.54917 -3.25578 0.169144
thorax -8.24616 -1.58212 0.650329
lowerneck -2.45375 2.3465 11.0023
upperneck 19.9701 4.12913 -10.245
head 6.87083 2.02692 -4.93092
rclavicle -4.78326e-015 2.68359e-015
rhumerus -20.0342 -17.229 -26.3449
rradius 35.724
rwrist 13.263
rhand -3.26225 21.5346
rfingers 7.12502
rthumb 22.4623 -7.17917
lclavicle -4.78326e-015 2.68359e-015
lhumerus -40.8312 -31.5993 43.4332
lradius 49.3263
lwrist 2.40677
lhand -14.4001 18.398
lfingers 7.12502
lthumb 11.7433 48.0488
rfemur -24.9759 -2.12232 21.4782
rtibia 59.0804
rfoot -25.6736 -6.15102
rtoes -0.774676
lfemur -21.0861 -0.125661 -23.3814
ltibia 48.3346
lfoot -28.6843 -0.0138546
ltoes -15.5172
580
root 9.57635 16.7651 -22.4486 3.42848 6.462 -0.978633
lowerback 6.1476 -2.34776 0.190228
upperback -4.65005 -3.12154 0.157225
thorax -8.34725 -1.53154 0.473547
lowerneck -2.58661 1.8084 10.6933
upperneck 20.4539 3.38914 -10.0602
head 6.95522 1.65816 -4.87848
rclavicle -9.3553e-015 -8.34896e-015
rhumerus -20.1364 -17.0551 -26.2826
rradius 35.7969
rwrist 13.7048
rhand -3.04557 21.6862
rfingers 7.12502
rthumb 22.6702 -7.00222
lclavicle -9.3553e-015 -8.34896e-015
lhumerus -41.1277 -31.8415 43.9391
lradius 49.6008
lwrist 2.3896
lhand -14.1506 18.4983
lfingers 7.12502
lthumb 11.9839 48.1352
rfemur -25.1398 -1.86197 21.8213
rtibia 58.9241
rfoot -25.6088 -6.09157
rtoes -1.04253
lfemur -21.4203 -0.118541 -23.0285
ltibia 48.5631
lfoot -28.7235 0.153304
ltoes -15.8178
581
root 9.56223 16.7642 -22.4499 3.43545 6.3594 -1.21504
lowerback 6.1214 -2.32523 0.386981
upperback -4.64284 -3.07175 0.159167
thorax -8.33488 -1.5187 0.357873
lowerneck -3.07728 1.34962 10.2301
upperneck 21.2504 2.74048 -9.78082
head 7.21785 1.32157 -4.76851
rclavicle -4.84538e-016 -9.14409e-015
rhumerus -20.0407 -17.5991 -26.1338
rradius 35.3695
rwrist 14.3118
rhand -2.85025 23.1344
rfingers 7.12502
rthumb 22.8577 -5.53098
lclavicle -4.84538e-016 -9.14409e-015
lhumerus -41.4516 -31.94 44.4582
lradius 49.7446
lwrist 2.55014
lhand -14.018 18.2184
lfingers 7.12502
lthumb 12.1118 47.8479
rfemur -25.0646 -1.79977 22.111
rtibia 58.7467
rfoot -25.6922 -6.11167
rtoes -2.19536
lfemur -21.5663 -0.0593515 -22.724
ltibia 48.782
lfoot -28.9447 0.416134
ltoes -17.4122
582
root 9.54541 16.759 -22.4504 3.30324 6.32273 -1.3539
lowerback 6.20896 -2.31154 0.472909
upperback -4.57207 -3.04783 0.112437
thorax -8.31694 -1.51336 0.259574
lowerneck -3.30756 0.883882 9.84584
upperneck 21.7764 2.09125 -9.54866
head 7.3535 0.993594 -4.68363
rclavicle -5.00689e-015 -4.96962e-015
rhumerus -19.8932 -17.4544 -26.345
rradius 35.4831
rwrist 14.0025
rhand -2.80494 22.6488
rfingers 7.12502
rthumb 22.9012 -6.01124
lclavicle -5.00689e-015 -4.96962e-015
lhumerus -41.7526 -32.0143 44.9112
lradius 49.9542
lwrist 2.74683
lhand -14.1467 18.0552
lfingers 7.12502
lthumb 11.9877 47.6919
rfemur -24.8418 -1.85208 22.3236
rtibia 58.5984
rfoot -25.863 -6.22068
rtoes -3.38077
lfemur -21.5305 -0.0307323 -22.5076
ltibia 48.9555
lfoot -29.1332 0.524874
ltoes -17.958
583
root 9.52805 16.7497 -22.4585 3.22148 6.311 -1.36178
lowerback 6.34746 -2.29449 0.419212
upperback -4.51599 -3.03526 0.0376553
thorax -8.33865 -1.50613 0.213837
lowerneck -3.40578 0.420859 9.67108
upperneck 22.0816 1.46599 -9.53299
head 7.40124 0.678859 -4.70115
rclavicle 8.70925e-015 2.78299e-015
rhumerus -19.8025 -17.1272 -26.5823
rradius 35.672
rwrist 13.7686
rhand -3.10471 21.9125
rfingers 7.12502
rthumb 22.6135 -6.78288
lclavicle 8.70925e-015 2.78299e-015
lhumerus -42.0844 -32.0944 45.4117
lradius 50.3029
lwrist 3.0079
lhand -14.3185 18.3805
lfingers 7.12502
lthumb 11.822 48.0269
rfemur -24.764 -1.8618 22.4194
rtibia 58.5365
rfoot -25.9851 -6.36607
rtoes -3.64047
lfemur -21.5435 -0.116978 -22.4325
ltibia 49.077
lfoot -29.1979 0.491333
ltoes -17.8086
584
root 9.5153 16.7418 -22.468 3.24146 6.28167 -1.16932
lowerback 6.40485 -2.27918 0.218843
upperback -4.47941 -3.04461 -0.0931104
thorax -8.32926 -1.50339 0.190855
lowerneck -3.61483 -0.042223 9.55628
upperneck 22.4568 0.849062 -9.62247
head 7.49387 0.36217 -4.76741
rclavicle 4.19063e-014 -9.93923e-016
rhumerus -19.7755 -17.1708 -26.6862
rradius 35.6658
rwrist 13.9898
rhand -3.36242 22.2471
rfingers 7.12502
rthumb 22.3661 -6.47824
lclavicle 4.19063e-014 -9.93923e-016
lhumerus -42.3825 -32.0991 45.8888
lradius 50.572
lwrist 3.01379
lhand -14.2661 18.3577
lfingers 7.12502
lthumb 11.8725 48.0011
rfemur -24.8079 -1.99096 22.2746
rtibia 58.5362
rfoot -26.0894 -6.48751
rtoes -4.16106
lfemur -21.6162 -0.226187 -22.605
ltibia 49.1604
lfoot -29.2289 0.374418
ltoes -17.4987
